<?xml version="1.0" encoding="UTF-8" standalone="no"?>
<svg
   xmlns:dc="http://purl.org/dc/elements/1.1/"
   xmlns:cc="http://creativecommons.org/ns#"
   xmlns:rdf="http://www.w3.org/1999/02/22-rdf-syntax-ns#"
   xmlns:svg="http://www.w3.org/2000/svg"
   xmlns="http://www.w3.org/2000/svg"
   xmlns:sodipodi="http://sodipodi.sourceforge.net/DTD/sodipodi-0.dtd"
   xmlns:inkscape="http://www.inkscape.org/namespaces/inkscape"
   width="53.177059mm"
   height="49.026062mm"
   viewBox="0 0 53.177059 49.026062"
   version="1.1"
   id="svg2729"
   inkscape:version="1.0.2 (e86c8708, 2021-01-15)"
   sodipodi:docname="mtv.svg">
  <defs
     id="defs2723" />
  <sodipodi:namedview
     id="base"
     pagecolor="#ffffff"
     bordercolor="#666666"
     borderopacity="1.0"
     inkscape:pageopacity="0.0"
     inkscape:pageshadow="2"
     inkscape:zoom="2.5221958"
     inkscape:cx="75.599253"
     inkscape:cy="166.72982"
     inkscape:document-units="mm"
     inkscape:current-layer="layer1"
     inkscape:document-rotation="0"
     showgrid="false"
     inkscape:snap-to-guides="true"
     inkscape:snap-grids="true"
     inkscape:window-width="1252"
     inkscape:window-height="1174"
     inkscape:window-x="79"
     inkscape:window-y="25"
     inkscape:window-maximized="0" />
  <metadata
     id="metadata2726">
    <rdf:RDF>
      <cc:Work
         rdf:about="">
        <dc:format>image/svg+xml</dc:format>
        <dc:type
           rdf:resource="http://purl.org/dc/dcmitype/StillImage" />
        <dc:title></dc:title>
      </cc:Work>
    </rdf:RDF>
  </metadata>
  <g
     inkscape:label="Layer 1"
     inkscape:groupmode="layer"
     id="layer1"
     transform="translate(-80.685434,-125.65686)">
    <path
       style="fill:#0646ff;stroke:#0646ff;stroke-width:0.26458300000000001px;stroke-linecap:butt;stroke-linejoin:miter;stroke-opacity:1;fill-opacity:1"
       d="m 92.16761,150.32671 41.56259,-24.4386 -2.1e-4,48.565 -21.76041,-12.15817 5.54891,-3.37287 10.7714,6.36492 -0.0544,-29.70295 -30.954184,18.11554 z"
       id="path2707"
       sodipodi:nodetypes="ccccccccc" />
    <path
       id="path2705"
       style="fill:#07e6d6;stroke:#07e6d6;stroke-width:0.26458300000000001px;stroke-linecap:butt;stroke-linejoin:miter;stroke-opacity:1;fill-opacity:1"
       d="m 102.5038,138.49265 c -1.79523,1.12429 -3.590464,2.24858 -5.385697,3.37287 -3.590468,-2.17604 -7.180935,-4.35209 -10.771403,-6.52813 -0.01813,9.95539 -0.03627,19.91078 -0.0544,29.86616 10.408729,-6.00224 20.81746,-12.00449 31.22619,-18.00673 1.74083,1.06988 3.48166,2.13977 5.22249,3.20966 -13.89039,8.08762 -28.02239,15.95901 -41.912784,24.04663 -0.03627,-16.1571 0.03627,-32.40789 0,-48.565 7.180935,4.09821 14.494674,8.50633 21.675604,12.60454 z"
       sodipodi:nodetypes="ccccccccc" />
  </g>
</svg>
