<?xml version="1.0" encoding="UTF-8" standalone="no"?>
<svg
   xmlns:dc="http://purl.org/dc/elements/1.1/"
   xmlns:cc="http://creativecommons.org/ns#"
   xmlns:rdf="http://www.w3.org/1999/02/22-rdf-syntax-ns#"
   xmlns:svg="http://www.w3.org/2000/svg"
   xmlns="http://www.w3.org/2000/svg"
   xmlns:sodipodi="http://sodipodi.sourceforge.net/DTD/sodipodi-0.dtd"
   xmlns:inkscape="http://www.inkscape.org/namespaces/inkscape"
   version="1.0"
   width="1245.4503pt"
   height="270.69443pt"
   viewBox="0 0 1245.4503 270.69443"
   preserveAspectRatio="xMidYMid meet"
   id="svg915"
   sodipodi:docname="revoke.svg"
   inkscape:version="1.0.2 (e86c8708, 2021-01-15)">
  <defs
     id="defs919" />
  <sodipodi:namedview
     pagecolor="#ffffff"
     bordercolor="#666666"
     borderopacity="1"
     objecttolerance="10"
     gridtolerance="10"
     guidetolerance="10"
     inkscape:pageopacity="0"
     inkscape:pageshadow="2"
     inkscape:window-width="1706"
     inkscape:window-height="948"
     id="namedview917"
     showgrid="false"
     inkscape:zoom="0.38428954"
     inkscape:cx="337.80379"
     inkscape:cy="96.706603"
     inkscape:window-x="506"
     inkscape:window-y="130"
     inkscape:window-maximized="0"
     inkscape:current-layer="svg915"
     inkscape:document-rotation="0" />
  <metadata
     id="metadata895">
Created by potrace 1.15, written by Peter Selinger 2001-2017
<rdf:RDF>
  <cc:Work
     rdf:about="">
    <dc:format>image/svg+xml</dc:format>
    <dc:type
       rdf:resource="http://purl.org/dc/dcmitype/StillImage" />
  </cc:Work>
</rdf:RDF>
</metadata>
  <g
     aria-label="REVOKE"
     transform="scale(1.0064802,0.99356152)"
     id="text848"
     style="font-size:432.066px;line-height:1.25;font-family:Teko;-inkscape-font-specification:Teko;stroke-width:2.25035">
    <path
       d="m 346.14012,163.13588 v 109.3127 H 307.25418 V 1.9752559 h 88.57353 q 40.18214,0 40.18214,38.0218091 V 124.682 q 0,32.83702 -28.94843,37.58975 l 42.77454,110.17683 h -41.9104 l -40.61421,-109.3127 z m 0,-129.619805 v 98.511045 h 38.02181 q 7.77718,0 10.36958,-2.16033 2.5924,-2.59239 2.5924,-10.36958 V 46.045989 q 0,-7.777188 -2.5924,-9.937518 -2.5924,-2.592396 -10.36958,-2.592396 z"
       style="font-size:432.066px;stroke-width:2.25035"
       id="path2580" />
    <path
       d="m 517.8796,240.90776 h 78.20395 v 31.54082 H 478.56159 V 1.9752559 h 114.4975 V 33.516075 H 517.8796 v 83.388735 h 62.21751 v 31.54082 H 517.8796 Z"
       style="font-size:432.066px;stroke-width:2.25035"
       id="path2582" />
    <path
       d="m 719.54641,1.9752559 h 40.18214 L 710.90509,272.44858 H 655.60064 L 606.77718,1.9752559 h 40.18214 L 682.8208,236.5871 Z"
       style="font-size:432.066px;stroke-width:2.25035"
       id="path2584" />
    <path
       d="m 822.49965,1.9752559 h 47.95932 q 40.18214,0 40.18214,38.0218091 V 234.42677 q 0,38.02181 -40.18214,38.02181 h -47.95932 q -40.61421,0 -40.61421,-38.02181 V 39.997065 q 0,-38.0218091 40.61421,-38.0218091 z M 871.75517,228.37784 V 46.045989 q 0,-7.777188 -2.5924,-9.937518 -2.59239,-2.592396 -10.36958,-2.592396 h -25.05983 q -7.77719,0 -10.36958,2.592396 -2.16033,2.16033 -2.16033,9.937518 V 228.37784 q 0,7.77719 2.16033,10.36959 2.59239,2.16033 10.36958,2.16033 h 25.05983 q 7.77719,0 10.36958,-2.16033 2.5924,-2.5924 2.5924,-10.36959 z"
       style="font-size:432.066px;stroke-width:2.25035"
       id="path2586" />
    <path
       d="m 1092.7907,1.9752559 -57.0327,135.6687241 56.6006,134.8046 h -42.3424 L 995.14377,137.64398 1050.8803,1.9752559 Z M 953.66543,272.44858 V 1.9752559 h 38.88594 V 272.44858 Z"
       style="font-size:432.066px;stroke-width:2.25035"
       id="path2588" />
    <path
       d="m 1159.2276,240.90776 h 78.2039 v 31.54082 H 1119.9096 V 1.9752559 h 114.4975 V 33.516075 h -75.1795 v 83.388735 h 62.2175 v 31.54082 h -62.2175 z"
       style="font-size:432.066px;stroke-width:2.25035"
       id="path2590" />
  </g>
  <path
     style="fill:#0646ff;fill-opacity:1;stroke:#0646ff;stroke-width:1.41828px;stroke-linecap:butt;stroke-linejoin:miter;stroke-opacity:1"
     d="M 60.274946,136.79711 278.40134,2.9919393 278.40034,268.89295 164.19861,202.32506 193.32008,183.85807 249.84993,218.70702 249.56432,56.078682 87.112358,155.2641 Z"
     id="path2707"
     sodipodi:nodetypes="ccccccccc" />
  <path
     id="path2705"
     style="fill:#07e6d6;fill-opacity:1;stroke:#07e6d6;stroke-width:1.41828px;stroke-linecap:butt;stroke-linejoin:miter;stroke-opacity:1"
     d="m 114.52075,70.260989 c -9.42164,6.15566 -18.843282,12.31132 -28.264912,18.46698 C 67.412554,76.813819 48.569275,64.899599 29.725977,52.985433 29.630814,107.49277 29.535632,162.00011 29.440487,216.50735 84.066988,183.64416 138.69348,150.7809 193.31997,117.91769 c 9.13613,5.85777 18.27224,11.71556 27.40836,17.57338 -72.89872,44.28101 -147.065485,87.3781 -219.96424064,131.65909 -0.190345,-88.46267 0.190346,-177.438301 0,-265.9010247 C 38.450647,23.68748 76.834198,47.822632 114.52075,70.260989 Z"
     sodipodi:nodetypes="ccccccccc" />
</svg>
